<?xml version="1.0" encoding="utf-8"?>
<!-- Generator: Adobe Illustrator 21.0.2, SVG Export Plug-In . SVG Version: 6.00 Build 0)  -->
<svg version="1.1" id="logo" xmlns="http://www.w3.org/2000/svg" xmlns:xlink="http://www.w3.org/1999/xlink" x="0px" y="0px"
	 viewBox="0 0 500 100" style="enable-background:new 0 0 500 100;" xml:space="preserve">
<style type="text/css">
	.st0{fill:none;stroke:#FFFFFF;stroke-width:4;stroke-linecap:round;stroke-linejoin:round;stroke-miterlimit:10;}
</style>
<path class="st0" d="M172.7,35.3c-1.1-0.8-7.7-5.5-16.2-3.8c-7.8,1.5-14.3,7.8-16,15.7c-1.5,6.9,1,14.3,5.8,18.7
	c2.4,2.1,4.7,2.9,7.3,3.8c14.7,5,28.3-0.5,29.8-1.2c7.1-3,11.9-7.4,13.7-9.2c1.1-1.1,1.9-2,2.5-2.7"/>
<path class="st0" d="M307,35.3c-1.1-0.8-7.7-5.5-16.2-3.8c-7.8,1.5-14.3,7.8-16,15.7c-1.5,6.9,1,14.3,5.8,18.7
	c2.4,2.1,4.7,2.9,7.3,3.8c14.7,5,25.4,0.1,26.9-0.7c5.4-2.9,10.8-6.2,14.8-9.9c5.9-5.4,10.2-10.5,10.2-10.5"/>
<path class="st0" d="M372.7,35.7c-1.1-0.8-7.7-5.5-16.2-3.8c-7.8,1.5-14.3,7.8-16,15.7c-1.5,6.9,1,14.3,5.8,18.7
	c2.4,2.1,4.7,2.9,7.3,3.8c14.7,5,28.3-0.5,29.8-1.2c7.1-3,11.9-7.4,13.7-9.2c1.1-1.1,1.9-2,2.5-2.7"/>
<path class="st0" d="M409.5,43.2c-1.8,1.7-14.3,14-11.2,25.5c0.4,1.3,1.1,3.9,3.3,5.3c5,3.3,14-1,18.8-6.3c5.7-6.2,7-15.3,4.5-21.2
	c-0.4-1-1.1-2.3-2.5-3.5c-3.2-2.7-8.8-3.5-11.3-0.8c-0.8,0.9-1,1.8-1.3,3.2c-0.9,4.1,0,8.1,1,10.2c3.6,7.6,18.3,7.7,20.8,7.7
	c18.4,0.1,32.1-12.8,37-18"/>
<path class="st0" d="M209.3,43.7c-1.8,1.7-14.3,14-11.2,25.5c0.4,1.3,1.1,3.9,3.3,5.3c5,3.3,14-1,18.8-6.3c5.7-6.2,7-15.3,4.5-21.2
	c-0.4-1-1.1-2.3-2.5-3.5c-3.2-2.7-8.8-3.5-11.3-0.8c-0.8,0.9-1,1.8-1.3,3.2c-0.9,4.1,1.7,9.5,3.3,11.2c7,6.8,16,6.7,18.5,6.7
	c26.5-0.3,40.1-16.6,45-21.8"/>
<path class="st0" d="M53.5,35.4c-1-4.1-2.8-5.7-4-6.4c-5.7-3.4-15.4,3.1-20.1,8.9c-3.8,4.6-6.6,14.1-3.9,19.6
	c2,4.1,8.2,5.1,12.5,3.5c4-1.5,7-4.8,11.6-15.8c3.2-7.6,4.9-13.3,6-13.1c1.4,0.2-1.5,9.9,3.4,17.2c2.8,4.2,7.7,7.1,12.4,7.9
	c14.1,2.4,27.4-13.8,28.9-12.2c0.6,0.7-2.3,3.5-5,9.2c-2.4,5.1-3.1,6.5-3.9,10.6c-0.6,3.1-0.5,6.2,1.2,8.1c4.4,4.7,18-1.7,24.5-5.8
	c9.2-5.6,13.6-10.6,18.8-16.5c1.2-1.3,4.4-4.9,5.4-6.5"/>
<path class="st0" d="M103.9,34.9c-0.1,0.4-0.3,1.8,0.5,3.1c0.4,0.7,0.9,1.1,1.2,1.4"/>
</svg>
